<?xml version="1.0" encoding="utf-8"?>
<!-- Generator: Adobe Illustrator 16.0.0, SVG Export Plug-In . SVG Version: 6.00 Build 0)  -->
<!DOCTYPE svg PUBLIC "-//W3C//DTD SVG 1.1 Tiny//EN" "http://www.w3.org/Graphics/SVG/1.1/DTD/svg11-tiny.dtd">
<svg version="1.1" baseProfile="tiny" id="Layer_1" xmlns="http://www.w3.org/2000/svg" xmlns:xlink="http://www.w3.org/1999/xlink"
	 x="0px" y="0px" width="234.816px" height="53.809px" viewBox="0 0 234.816 53.809" xml:space="preserve">
<g>
	<path fill="#FFFFFF" d="M61.554,40.225h6.526c0,2.035,0.567,3.713,1.705,5.035c1.134,1.32,2.555,1.982,4.266,1.982
		c1.612,0,2.943-0.496,3.982-1.49c1.042-0.998,1.561-2.266,1.561-3.811c0-1.354-0.368-2.502-1.104-3.436
		c-0.738-0.939-1.926-1.732-3.563-2.387c-0.562-0.236-1.359-0.539-2.387-0.916c-2.738-1.027-4.482-1.848-5.229-2.455
		c-1.381-1.1-2.401-2.348-3.055-3.74c-0.657-1.393-0.983-2.999-0.983-4.824c0-3.137,1.095-5.804,3.283-8.003
		c2.188-2.202,4.861-3.302,8.02-3.302c3.3,0,5.919,0.966,7.863,2.897c1.94,1.93,3.008,4.639,3.193,8.127h-6.667
		c-0.118-1.427-0.587-2.539-1.404-3.336c-0.82-0.795-1.921-1.193-3.303-1.193c-1.241,0-2.274,0.427-3.105,1.28
		c-0.832,0.856-1.247,1.912-1.247,3.176c0,2.157,1.873,3.92,5.616,5.301c1.056,0.4,1.884,0.715,2.494,0.949
		c2.949,1.191,5.049,2.68,6.302,4.457s1.875,4.154,1.875,7.125c0,3.463-1.168,6.342-3.51,8.637
		c-2.339,2.291-5.288,3.436-8.845,3.436c-3.578,0-6.47-1.201-8.669-3.613C62.969,47.711,61.762,44.412,61.554,40.225z"/>
	<path fill="#FFFFFF" d="M94.549,52.719V20.426h-5.476v-6.318h5.476V1.612h6.914v12.496h5.476v6.318h-5.476v32.292H94.549z"/>
	<path fill="#FFFFFF" d="M117.119,35.979c0.584,3.229,2.042,5.844,4.37,7.842c2.328,2.002,5.096,3.002,8.303,3.002
		c2.293,0,4.381-0.551,6.266-1.652c1.885-1.098,3.387-2.652,4.51-4.666h7.826c-1.777,4.281-4.262,7.559-7.459,9.828
		c-3.191,2.27-6.908,3.402-11.143,3.402c-2.857,0-5.465-0.502-7.828-1.508c-2.365-1.004-4.504-2.514-6.425-4.529
		c-1.803-1.893-3.21-4.1-4.229-6.613c-1.017-2.518-1.528-5.084-1.528-7.707c0-2.713,0.463-5.25,1.387-7.615
		c0.927-2.364,2.286-4.515,4.089-6.458c1.92-2.106,4.083-3.69,6.495-4.757c2.41-1.064,5.041-1.595,7.898-1.595
		c3.393,0,6.547,0.789,9.459,2.367c2.914,1.581,5.318,3.788,7.213,6.619c1.125,1.752,1.953,3.679,2.492,5.774
		c0.539,2.096,0.809,4.488,0.809,7.178v1.09H117.119z M142.008,29.727c-0.869-3.178-2.365-5.644-4.494-7.388
		c-2.131-1.744-4.684-2.615-7.654-2.615c-3.041,0-5.678,0.896-7.914,2.685c-2.234,1.792-3.773,4.229-4.616,7.318H142.008z"/>
	<path fill="#FFFFFF" d="M162.68,52.719h-6.949V14.108h6.529v4.459c1.145-1.708,2.463-2.979,3.947-3.811
		c1.488-0.829,3.213-1.255,5.178-1.281v7.265c-3.111,0.236-5.34,1.154-6.688,2.758c-1.344,1.601-2.018,4.185-2.018,7.74V52.719z"/>
	<path fill="#FFFFFF" d="M183.461,52.719h-6.951V14.108h6.529v4.459c1.146-1.708,2.461-2.979,3.949-3.811
		c1.488-0.829,3.211-1.255,5.178-1.281v7.265c-3.111,0.236-5.342,1.154-6.689,2.758c-1.342,1.601-2.016,4.185-2.016,7.74V52.719z"/>
	<path fill="#FFFFFF" d="M194.975,33.451c0-2.742,0.459-5.297,1.387-7.672c0.92-2.376,2.285-4.51,4.088-6.405
		c1.943-2.081,4.129-3.688,6.566-4.811c2.432-1.123,4.959-1.685,7.582-1.685c2.807,0,5.408,0.505,7.807,1.511
		c2.398,1.005,4.57,2.493,6.514,4.459c1.893,1.943,3.354,4.128,4.369,6.563c1.018,2.435,1.529,4.951,1.529,7.546
		c0,2.645-0.479,5.219-1.422,7.721c-0.949,2.506-2.279,4.695-3.988,6.564c-1.965,2.154-4.172,3.785-6.615,4.898
		c-2.443,1.111-5.049,1.668-7.807,1.668c-2.836,0-5.441-0.512-7.828-1.527c-2.387-1.02-4.527-2.523-6.426-4.51
		c-1.803-1.898-3.213-4.104-4.229-6.619C195.484,38.641,194.975,36.07,194.975,33.451z M202.168,33.377
		c0,3.865,1.225,7.082,3.668,9.654c2.449,2.574,5.498,3.861,9.148,3.861c3.578,0,6.576-1.295,9.004-3.877
		c2.42-2.586,3.633-5.822,3.633-9.705c0-3.91-1.213-7.139-3.633-9.688c-2.428-2.55-5.449-3.828-9.076-3.828
		c-3.605,0-6.627,1.295-9.076,3.878C203.393,26.259,202.168,29.496,202.168,33.377z"/>
</g>
<g>
	<polygon fill="#457BBF" points="0,52.791 10.542,52.791 22.996,26.349 17.725,15.158 	"/>
</g>
<polygon fill="#FFFFFF" points="60.296,52.791 49.754,52.791 24.891,0 35.433,0 "/>
</svg>
